# Blender v2.79 (sub 0) OBJ File: 'cuarto.blend'
# www.blender.org
mtllib cuarto.mtl
o Cube.003_Cube.004
v -5.000000 0.000000 -5.025000
v -5.000000 5.000000 -5.025000
v 5.000000 0.000000 -5.025000
v 5.000000 5.000000 -5.025000
v -5.000000 0.000000 -4.975000
v -5.000000 5.000000 -4.975000
v 5.000000 0.000000 -4.975000
v 5.000000 5.000000 -4.975000
vn 0.0000 0.0000 -1.0000
vn 1.0000 0.0000 0.0000
vn -0.0000 0.0000 1.0000
vn -1.0000 0.0000 0.0000
vn 0.0000 -1.0000 0.0000
vn 0.0000 1.0000 0.0000
usemtl None
s off
f 1//1 2//1 4//1 3//1
f 3//2 4//2 8//2 7//2
f 7//3 8//3 6//3 5//3
f 5//4 6//4 2//4 1//4
f 3//5 7//5 5//5 1//5
f 8//6 4//6 2//6 6//6
o pared_Cube.003
v -5.000000 0.000000 4.975000
v -5.000000 5.000000 4.975000
v 5.000000 0.000000 4.975000
v 5.000000 5.000000 4.975000
v -5.000000 0.000000 5.025000
v -5.000000 5.000000 5.025000
v 5.000000 0.000000 5.025000
v 5.000000 5.000000 5.025000
v 0.440473 0.038240 5.025000
v 0.440473 0.038240 4.975000
v -1.047836 0.038240 5.025000
v -1.047836 0.038240 4.975000
v 0.440473 3.038240 5.025000
v 0.440473 3.038240 4.975000
v -1.047836 3.038240 5.025000
v -1.047836 3.038240 4.975000
v 0.440474 2.720237 5.025000
v 0.440474 2.279763 4.975000
vn -0.0000 -0.0000 -1.0000
vn 1.0000 0.0000 0.0000
vn 0.0000 -0.0000 1.0000
vn -1.0000 0.0000 0.0000
vn 0.0000 -1.0000 0.0000
vn 0.0000 1.0000 0.0000
usemtl None
s off
f 9//7 10//7 24//7 20//7 18//7 26//7 11//7
f 11//8 12//8 16//8 15//8
f 15//9 16//9 25//9 17//9 19//9 13//9
f 13//10 14//10 10//10 9//10
f 11//11 15//11 13//11 9//11
f 16//12 12//12 10//12 14//12
f 18//10 17//10 25//10 21//10 22//10 26//10
f 19//8 20//8 24//8 23//8
f 13//9 19//9 23//9 21//9 25//9 16//9 14//9
f 11//7 26//7 22//7 24//7 10//7 12//7
f 20//12 19//12 17//12 18//12
f 22//11 21//11 23//11 24//11
o Cube.000_Cube.002
v 4.975000 0.000000 5.000000
v 4.975000 5.000000 5.000000
v 4.975000 0.000000 -5.000000
v 4.975000 5.000000 -5.000000
v 5.025000 0.000000 5.000000
v 5.025000 5.000000 5.000000
v 5.025000 0.000000 -5.000000
v 5.025000 5.000000 -5.000000
vn -1.0000 0.0000 0.0000
vn 0.0000 0.0000 -1.0000
vn 1.0000 0.0000 0.0000
vn 0.0000 0.0000 1.0000
vn 0.0000 -1.0000 0.0000
vn 0.0000 1.0000 0.0000
usemtl None
s off
f 27//13 28//13 30//13 29//13
f 29//14 30//14 34//14 33//14
f 33//15 34//15 32//15 31//15
f 31//16 32//16 28//16 27//16
f 29//17 33//17 31//17 27//17
f 34//18 30//18 28//18 32//18
o Cube.001
v -5.025000 0.000000 5.000000
v -5.025000 5.000000 5.000000
v -5.025000 0.000000 -5.000000
v -5.025000 5.000000 -5.000000
v -4.975000 0.000000 5.000000
v -4.975000 5.000000 5.000000
v -4.975000 0.000000 -5.000000
v -4.975000 5.000000 -5.000000
vt 0.000000 0.000000
vt 1.000000 0.000000
vt 1.000000 1.000000
vt 0.000000 1.000000
vt 0.000000 0.000000
vt 1.000000 0.000000
vt 1.000000 1.000000
vt 0.000000 1.000000
vt 0.000000 0.000000
vt 1.000000 0.000000
vt 1.000000 1.000000
vt 0.000000 1.000000
vt 0.000000 0.000000
vt 1.000000 0.000000
vt 1.000000 1.000000
vt 0.000000 1.000000
vt 1.000000 0.000000
vt 1.000000 1.000000
vt 0.000000 0.000000
vt 0.000000 1.000000
vn -1.0000 0.0000 0.0000
vn 0.0000 0.0000 -1.0000
vn 1.0000 0.0000 0.0000
vn 0.0000 0.0000 1.0000
vn 0.0000 -1.0000 0.0000
vn 0.0000 1.0000 0.0000
usemtl None
s off
f 35/1/19 36/2/19 38/3/19 37/4/19
f 37/5/20 38/6/20 42/7/20 41/8/20
f 41/9/21 42/10/21 40/11/21 39/12/21
f 39/13/22 40/14/22 36/15/22 35/16/22
f 37/5/23 41/17/23 39/18/23 35/16/23
f 42/19/24 38/6/24 36/15/24 40/20/24
